# xmcd
#
# Track frame offsets:
#	150
#	16506
#	34224
#	46116
#	64371
#	83880
#	94213
#	111774
#	124900
#
# Disc length: 1810
#
# Revision: 1
# Processed by: cddbd v1.5.1PL0 Copyright (c) Steve Scherf et al.
# Submitted via: VisiTrax 2.9.5.180 - For more info visit www.synapsa.com
# Normalized: r0:DSETVAR1
#
DISCID=6e071009
DTITLE=Various Artist - CDX 275 September 2001
DYEAR=2001
DGENRE=
TTITLE0=Clint Black/Lisa Hartman - Easy for me to say
TTITLE1=Mike Walker - Stones in the road
TTITLE2=Patty Loveless - The boys are back in town
TTITLE3=Paul Overstreet - The toughest battles
TTITLE4=Wile Fox - Advice from an old man
TTITLE5=Kevin Wilson - Bootheel girl
TTITLE6=Shelley Laine - I need your love
TTITLE7=Sonny Burgess - It must have been somethin' I said
TTITLE8=Paula Hernandez - I've got an attitude
EXTD=
EXTT0=
EXTT1=
EXTT2=
EXTT3=
EXTT4=
EXTT5=
EXTT6=
EXTT7=
EXTT8=
PLAYORDER=
